<svg width="512" height="512" viewBox="0 0 512 512" fill="none" xmlns="http://www.w3.org/2000/svg">
<g clip-path="url(#clip0)">
<rect width="512" height="512" fill="white"/>
<path d="M436.978 75.0209C336.957 -25 175.056 -25.014 75.0209 75.0209C-25 175.042 -25.014 336.943 75.0209 436.978C175.042 536.999 336.942 537.014 436.978 436.978C537 336.959 537.016 175.057 436.978 75.0209ZM247.55 272.595L151.446 347.342C137.79 357.963 117.517 348.33 117.517 330.748V181.253C117.517 163.794 137.655 153.934 151.446 164.659L247.55 239.406C258.371 247.822 258.357 264.189 247.55 272.595ZM330.413 330.748C330.413 342.358 321.001 351.77 309.391 351.77C297.78 351.77 288.368 342.358 288.368 330.748V181.253C288.368 169.643 297.78 160.231 309.391 160.231C321.001 160.231 330.413 169.643 330.413 181.253V330.748ZM405.161 330.748C405.161 342.358 395.749 351.77 384.138 351.77C372.528 351.77 363.115 342.358 363.115 330.748V181.253C363.115 169.643 372.528 160.231 384.138 160.231C395.749 160.231 405.161 169.643 405.161 181.253V330.748Z" fill="black"/>
<path d="M275.698 254.47L110.161 378.425L110.365 130.242L275.698 254.47Z" fill="#2EB82E"/>
</g>
<defs>
<clipPath id="clip0">
<rect width="512" height="512" fill="white"/>
</clipPath>
</defs>
</svg>
